<svg width="659" height="659" viewBox="0 0 659 659" fill="none" xmlns="http://www.w3.org/2000/svg">
<path d="M230.129 522.659V559.496C230.129 559.496 206.185 569.314 206.185 590.807C206.185 612.301 221.528 620.885 244.256 620.885H301.572C315.445 620.885 328.355 613.518 328.355 593.866V458.194L228.896 465.562L230.129 522.659Z" fill="#47AA57"/>
<path d="M230.129 522.659V559.496C230.129 559.496 206.185 569.314 206.185 590.807C206.185 612.301 221.528 620.885 244.256 620.885H301.572C315.445 620.885 328.355 613.518 328.355 593.866V458.194L228.896 465.562L230.129 522.659Z" fill="#FF9945"/>
<path d="M328.33 510.214C292.003 508.186 258.285 500.976 229.395 489.869L228.87 465.562L328.33 458.194V510.214Z" fill="#F78324"/>
<path d="M425.299 522.659V559.496C425.299 559.496 449.243 569.314 449.243 590.807C449.243 612.301 433.9 620.885 411.173 620.885H353.856C339.983 620.885 327.073 613.518 327.073 593.866V458.194L426.533 465.562L425.299 522.659Z" fill="#FF9945"/>
<path d="M426.557 465.562L425.751 502.816C402.005 507.978 376.293 510.804 349.444 510.804C341.899 510.804 334.444 510.579 327.097 510.144V458.194L426.557 465.562Z" fill="#F78324"/>
<path d="M232.636 39.5916C264.086 36.148 294.554 68.6092 311.334 118.014C329.399 70.0946 363.017 39.6212 393.952 46.8534C423.015 53.648 441.078 91.7037 441.057 139.029C462.089 122.946 485.409 117.663 504.642 127.259C538.99 144.397 547.294 202.504 523.189 257.045C519.726 264.878 515.782 272.211 511.467 278.976C533.656 279.801 553.477 289.003 566.074 306.568C592.412 343.293 577.197 402.67 532.09 439.189C527.427 442.965 522.625 446.346 517.737 449.338C477.807 477.561 417.239 495.566 349.428 495.566C278.899 495.566 216.203 476.09 176.416 445.896C153.484 429.33 130.696 403.636 112.295 371.424C70.6533 298.527 67.2402 219.863 104.671 195.724C122.476 184.242 146.315 187.166 170.902 201.233C170.488 198.11 170.126 194.954 169.817 191.767C162.115 112.366 190.24 44.2342 232.636 39.5916Z" fill="#FF9945"/>
<path d="M363.305 358.106C397.751 358.106 425.674 324.425 425.674 282.878C425.674 241.33 397.751 207.649 363.305 207.649C328.859 207.649 300.936 241.33 300.936 282.878C300.936 324.425 328.859 358.106 363.305 358.106Z" fill="#F78324"/>
<path d="M257.767 358.106C292.212 358.106 320.136 324.425 320.136 282.878C320.136 241.33 292.212 207.649 257.767 207.649C223.321 207.649 195.397 241.33 195.397 282.878C195.397 324.425 223.321 358.106 257.767 358.106Z" fill="#F78324"/>
<path d="M307.306 381.469C326.363 381.469 341.811 366.021 341.811 346.964C341.811 327.907 326.363 312.459 307.306 312.459C288.25 312.459 272.801 327.907 272.801 346.964C272.801 366.021 288.25 381.469 307.306 381.469Z" fill="#F78324"/>
<path d="M252.56 351.352C286.054 351.352 313.206 319.176 313.206 279.486C313.206 239.796 286.054 207.62 252.56 207.62C219.066 207.62 191.914 239.796 191.914 279.486C191.914 319.176 219.066 351.352 252.56 351.352Z" fill="white"/>
<path d="M252.544 312.456C267.905 312.456 280.358 297.696 280.358 279.489C280.358 261.281 267.905 246.521 252.544 246.521C237.183 246.521 224.73 261.281 224.73 279.489C224.73 297.696 237.183 312.456 252.544 312.456Z" fill="#050606"/>
<path d="M358.523 351.352C392.017 351.352 419.169 319.176 419.169 279.486C419.169 239.796 392.017 207.62 358.523 207.62C325.029 207.62 297.877 239.796 297.877 279.486C297.877 319.176 325.029 351.352 358.523 351.352Z" fill="white"/>
<path d="M237.426 265.712C242.036 265.712 245.773 261.974 245.773 257.364C245.773 252.754 242.036 249.017 237.426 249.017C232.815 249.017 229.078 252.754 229.078 257.364C229.078 261.974 232.815 265.712 237.426 265.712Z" fill="white"/>
<path d="M359.851 312.456C375.212 312.456 387.664 297.696 387.664 279.489C387.664 261.281 375.212 246.521 359.851 246.521C344.49 246.521 332.037 261.281 332.037 279.489C332.037 297.696 344.49 312.456 359.851 312.456Z" fill="#050606"/>
<path d="M344.733 265.712C349.343 265.712 353.08 261.974 353.08 257.364C353.08 252.754 349.343 249.017 344.733 249.017C340.123 249.017 336.385 252.754 336.385 257.364C336.385 261.974 340.123 265.712 344.733 265.712Z" fill="white"/>
<path d="M306.483 374.977C324.037 374.977 338.267 360.747 338.267 343.193C338.267 325.639 324.037 311.408 306.483 311.408C288.929 311.408 274.698 325.639 274.698 343.193C274.698 360.747 288.929 374.977 306.483 374.977Z" fill="#FF7B10"/>
<path d="M186.418 424.271C190.601 424.189 193.84 425.347 196.43 427.285C199.063 429.255 201.103 432.087 202.745 435.437C206.06 442.199 207.566 450.621 209.262 457.444L209.379 457.915L209.764 458.21C219.889 465.956 226.156 469.81 234.727 479.438C243.649 489.459 245.693 499.26 243.207 508.248C240.693 517.335 233.477 525.853 223.341 533.028C211.389 541.488 195.544 546.071 180.559 544.683H180.56C177.999 544.435 175.016 543.69 172.283 542.476C169.537 541.256 167.152 539.612 165.664 537.636C161.943 532.693 162.362 528.463 163.139 522.296L163.341 520.693L161.726 520.739C154.588 520.942 147.799 520.284 142.352 516.066C136.992 511.918 134.833 506.795 134.872 501.534C134.911 496.215 137.205 490.63 141.003 485.707L141.935 484.5L140.644 483.688C134.167 479.618 128.349 473.669 128.531 466.057C128.674 460.068 131.841 455.52 136.438 452.212C141.061 448.885 147.057 446.881 152.548 446.068C159.07 445.103 164.731 445.401 171.503 445.635L172.747 445.678L172.922 444.447C173.585 439.81 174.549 435.105 176.592 431.372C178.582 427.737 181.575 425.053 186.418 424.271Z" fill="#FF9945" stroke="#F78324" stroke-width="2.7692"/>
<path d="M421.144 448.474C432.344 447.492 443.507 450.754 452.413 457.613L452.422 457.619C472.822 473.075 474.318 504.587 459.453 524.993C452.899 533.995 443.31 537.637 432.193 538.995C424.827 539.252 415.348 538.326 408.284 534.767C404.763 532.992 401.913 530.6 400.178 527.442C398.452 524.302 397.758 520.272 398.774 515.073C399.098 513.419 400.314 511.916 402.062 510.552C403.794 509.201 405.874 508.119 407.64 507.246L409.462 506.345L407.881 505.066C406.33 503.812 404.685 502.499 403.288 501.026C401.98 499.647 400.969 498.207 400.479 496.669L400.388 496.36C398.97 491.119 399.541 487.315 401.39 484.471C403.267 481.582 406.614 479.447 411.234 477.899L413.538 477.128L411.619 475.637C411.107 475.239 410.598 474.836 410.087 474.428L410.078 474.422L409.52 473.974C406.853 471.784 404.673 469.242 404.217 466.161L404.176 465.84C403.597 460.442 405.478 456.552 408.598 453.783C411.773 450.965 416.302 449.257 421.008 448.497L421.041 448.491C421.05 448.489 421.063 448.487 421.098 448.481C421.11 448.48 421.125 448.477 421.144 448.474Z" fill="#FF9945" stroke="#F78324" stroke-width="2.60368"/>
</svg>
